<svg width="20" height="20" viewBox="0 0 20 20" fill="none" xmlns="http://www.w3.org/2000/svg">
<path fill-rule="evenodd" clip-rule="evenodd" d="M10 3.5C9.11681 3.5 8.27716 3.67559 7.51214 3.99283C7.00198 4.20439 6.41692 3.96232 6.20536 3.45216C5.99381 2.942 6.23588 2.35693 6.74604 2.14538C7.74964 1.7292 8.84931 1.5 10 1.5C11.1507 1.5 12.2504 1.7292 13.254 2.14538C13.7641 2.35693 14.0062 2.942 13.7946 3.45216C13.5831 3.96232 12.998 4.20438 12.4879 3.99283C11.7228 3.67559 10.8832 3.5 10 3.5ZM16.5478 6.20536C17.058 5.99381 17.6431 6.23588 17.8546 6.74604C18.2708 7.74964 18.5 8.84931 18.5 10C18.5 11.1507 18.2708 12.2504 17.8546 13.254C17.6431 13.7641 17.058 14.0062 16.5478 13.7946C16.0377 13.5831 15.7956 12.998 16.0072 12.4879C16.3244 11.7228 16.5 10.8832 16.5 10C16.5 9.11681 16.3244 8.27716 16.0072 7.51214C15.7956 7.00198 16.0377 6.41692 16.5478 6.20536ZM3.45216 6.20537C3.96232 6.41692 4.20438 7.00199 3.99283 7.51215C3.67559 8.27716 3.5 9.11681 3.5 10C3.5 10.8832 3.67559 11.7228 3.99283 12.4879C4.20439 12.998 3.96232 13.5831 3.45216 13.7946C2.942 14.0062 2.35693 13.7641 2.14538 13.254C1.7292 12.2504 1.5 11.1507 1.5 10C1.5 8.84931 1.7292 7.74964 2.14538 6.74604C2.35693 6.23588 2.942 5.99381 3.45216 6.20537ZM13.7946 16.5478C14.0062 17.058 13.7641 17.6431 13.254 17.8546C12.2504 18.2708 11.1507 18.5 10 18.5C8.84931 18.5 7.74964 18.2708 6.74604 17.8546C6.23588 17.6431 5.99381 17.058 6.20537 16.5478C6.41692 16.0377 7.00199 15.7956 7.51215 16.0072C8.27716 16.3244 9.11681 16.5 10 16.5C10.8832 16.5 11.7228 16.3244 12.4879 16.0072C12.998 15.7956 13.5831 16.0377 13.7946 16.5478Z" fill="#84847B"/>
</svg>
