<svg width="22" height="21" viewBox="0 0 22 21" fill="none" xmlns="http://www.w3.org/2000/svg">
<path d="M0 4C0 1.79086 1.79086 0 4 0L18 0C20.2091 0 22 1.79086 22 4V16.5C22 18.7091 20.2091 20.5 18 20.5H4C1.79086 20.5 0 18.7091 0 16.5L0 4Z" fill="#353531"/>
<path fill-rule="evenodd" clip-rule="evenodd" d="M15 4C15.5523 4 16 4.44772 16 5L16 15.5C16 16.0523 15.5523 16.5 15 16.5C14.4477 16.5 14 16.0523 14 15.5L14 5C14 4.44772 14.4477 4 15 4ZM11 7.5C11.5523 7.5 12 7.94772 12 8.5L12 15.5C12 16.0523 11.5523 16.5 11 16.5C10.4477 16.5 10 16.0523 10 15.5L10 8.5C10 7.94772 10.4477 7.5 11 7.5ZM7 11.5C7.55229 11.5 8 11.9477 8 12.5L8 15.5C8 16.0523 7.55228 16.5 7 16.5C6.44771 16.5 6 16.0523 6 15.5L6 12.5C6 11.9477 6.44772 11.5 7 11.5Z" fill="#84847B"/>
</svg>
